<svg version="1.1" id="Layer_1" xmlns="http://www.w3.org/2000/svg" xmlns:xlink="http://www.w3.org/1999/xlink" x="0px" y="0px"
	 width="100%" viewBox="0 0 1024 768" enable-background="new 0 0 1024 768" xml:strip-space="default">
<path fill="#000000" opacity="1.000000" stroke="none" 
	d="
M129.664383,338.999939 
	C129.667038,330.170715 129.694427,321.841400 129.658157,313.512360 
	C129.647003,310.955170 129.906738,308.760132 133.260178,308.834442 
	C145.399643,309.103607 157.592865,307.805969 169.671463,309.783569 
	C185.801056,312.424469 195.174377,323.150299 194.212051,337.940521 
	C193.629578,346.892975 188.972275,353.482269 180.655991,358.130707 
	C187.416977,361.549164 192.900497,365.387878 195.400070,372.296051 
	C202.012558,390.571320 190.535995,408.313507 171.035385,409.159424 
	C158.730560,409.693146 146.383942,409.194031 134.059631,409.386139 
	C129.867462,409.451416 129.640701,407.118225 129.647888,403.968109 
	C129.696930,382.478821 129.668228,360.989349 129.664383,338.999939 
M149.660156,397.908417 
	C155.322037,397.875977 160.988266,397.972687 166.644867,397.782837 
	C176.834671,397.440857 182.909164,392.091400 183.605759,383.081421 
	C184.306122,374.022614 179.119308,367.440338 169.654755,365.221405 
	C162.568283,363.559967 155.377045,364.787506 148.259216,364.271027 
	C143.858902,363.951752 142.286377,365.791443 142.401840,370.050629 
	C142.595734,377.202972 142.864807,384.389069 142.381561,391.512054 
	C142.031906,396.666229 143.638275,398.705353 149.660156,397.908417 
M142.887863,335.485992 
	C142.778702,339.805908 142.681717,344.126190 142.554672,348.445587 
	C142.499588,350.318878 142.310120,352.615570 144.846634,352.616211 
	C153.599594,352.618378 162.534149,354.193726 170.968735,350.564209 
	C177.655533,347.686798 181.335068,341.220581 180.654007,334.119812 
	C180.058044,327.906586 175.357635,323.021942 168.389679,321.336151 
	C160.998703,319.547974 153.490768,320.526367 146.031784,320.379272 
	C143.637085,320.332092 142.943176,321.952118 142.925888,324.016479 
	C142.896637,327.509216 142.897079,331.002136 142.887863,335.485992 
z"/>
<path fill="#000000" opacity="1.000000" stroke="none" 
	d="
M542.996155,409.327026 
	C534.509399,409.330017 526.519348,409.220245 518.535034,409.386475 
	C514.943787,409.461273 513.545898,408.267456 513.560120,404.512146 
	C513.674805,374.233826 513.644165,343.954865 513.609436,313.676178 
	C513.606201,310.845093 514.030701,308.721344 517.574280,308.820740 
	C529.367859,309.151520 541.207764,307.892670 552.956238,309.705261 
	C569.179565,312.208221 579.097778,323.013489 578.185303,337.286499 
	C577.602783,346.398834 573.089294,353.236725 564.893311,357.945190 
	C565.721313,358.618561 566.143433,359.149231 566.691650,359.380127 
	C578.952393,364.543701 583.151794,377.907593 580.113037,389.924713 
	C577.324402,400.952332 567.213196,408.649475 554.476685,409.240753 
	C550.822754,409.410400 547.156067,409.305695 542.996155,409.327026 
M546.234985,364.328949 
	C541.070435,364.330597 535.905090,364.384247 530.741577,364.313110 
	C527.946411,364.274597 526.327515,365.170166 526.351196,368.294159 
	C526.416748,376.956604 526.390259,385.620148 526.337463,394.282867 
	C526.321960,396.824463 527.499451,397.921509 529.972168,397.894073 
	C537.633911,397.809052 545.326721,398.161804 552.950256,397.585907 
	C563.102356,396.819000 569.005066,388.535583 567.096680,378.654358 
	C565.302856,369.366516 559.310303,365.061707 546.234985,364.328949 
M551.920837,351.654083 
	C560.841187,348.244385 565.286133,342.333191 564.634460,334.746674 
	C563.995300,327.305847 558.827393,322.383026 549.387451,320.785583 
	C542.797241,319.670441 536.100403,320.438599 529.451416,320.379242 
	C527.044922,320.357727 526.376831,321.934967 526.378235,324.025299 
	C526.384094,332.516327 526.387634,341.007385 526.381226,349.498413 
	C526.379761,351.444122 527.110657,352.810913 529.245056,352.746857 
	C536.540771,352.527924 543.895447,353.638092 551.920837,351.654083 
z"/>
<path fill="#000000" opacity="1.000000" stroke="none" 
	d="
M781.175354,388.529907 
	C776.499268,375.694519 776.892822,363.279572 782.245239,351.224579 
	C788.163879,337.894257 802.452332,330.547546 816.749146,332.967804 
	C832.024353,335.553619 840.798584,345.203979 842.383118,361.098267 
	C842.713196,364.408508 843.117493,367.683746 842.945435,371.046387 
	C842.716431,375.522736 840.994202,377.403320 836.185608,377.288696 
	C823.536987,376.987213 810.876404,377.170837 798.220703,377.210632 
	C796.265137,377.216797 794.222717,376.787720 792.396912,377.866699 
	C791.700073,386.894623 799.018555,395.183563 809.804871,397.799957 
	C819.428650,400.134430 828.506775,397.846710 837.378967,394.206329 
	C839.885437,404.354736 838.885498,406.302094 829.554565,408.529114 
	C815.095276,411.980164 801.431396,410.878540 789.687134,400.578033 
	C786.005859,397.349243 783.245361,393.406982 781.175354,388.529907 
M791.961975,362.174591 
	C790.967285,364.888367 792.231262,365.863464 794.788269,365.861237 
	C805.255249,365.852173 815.722168,365.836945 826.189148,365.849182 
	C828.624695,365.852051 829.700317,364.831116 829.850769,362.274689 
	C830.409241,352.786194 823.261047,344.704987 813.730042,344.272003 
	C802.375122,343.756104 795.721008,349.046326 791.961975,362.174591 
z"/>
<path fill="#000000" opacity="1.000000" stroke="none" 
	d="
M428.414734,409.807922 
	C407.623779,411.987274 391.747284,403.689117 386.070709,386.897278 
	C381.339111,372.900909 382.095184,358.864990 390.507263,346.195587 
	C398.270416,334.503479 413.015778,329.911865 427.294189,334.055176 
	C439.774017,337.676544 447.756958,348.968170 448.192261,364.315094 
	C448.643005,380.206055 447.993713,376.972382 435.855957,377.167358 
	C424.869934,377.343811 413.878571,377.163483 402.889679,377.193787 
	C396.976227,377.210083 396.220764,378.436005 398.469879,384.058411 
	C402.795380,394.871460 415.132751,400.559082 428.977936,398.364349 
	C433.597626,397.632050 437.850891,395.805908 442.214294,394.377472 
	C445.466278,402.847290 443.921631,406.138580 435.699249,408.404816 
	C433.467743,409.019836 431.138947,409.281616 428.414734,409.807922 
M435.108795,360.035278 
	C432.914703,348.471252 425.828217,343.114075 414.323456,344.322235 
	C406.641937,345.128906 399.832001,351.968628 397.659637,360.750488 
	C396.735626,364.485657 397.842072,365.970856 401.722595,365.917938 
	C411.343781,365.786743 420.968384,365.777710 430.589996,365.875641 
	C434.255524,365.912933 435.881683,364.486511 435.108795,360.035278 
z"/>
<path fill="#000000" opacity="1.000000" stroke="none" 
	d="
M653.173279,348.045471 
	C656.884644,355.802246 657.569885,363.675323 657.260437,371.758545 
	C657.108215,375.736694 655.400330,377.289673 651.368896,377.242310 
	C638.220093,377.087830 625.068237,377.174500 611.917664,377.203735 
	C605.893677,377.217133 605.221619,378.288910 607.506348,383.984863 
	C611.933472,395.021973 623.865112,400.597656 637.911011,398.399963 
	C642.676270,397.654388 647.085449,395.810944 651.579468,394.276276 
	C654.494263,402.437866 652.765259,406.166992 645.171265,408.280914 
	C636.860535,410.594421 628.471313,410.992249 620.023071,408.984741 
	C603.846802,405.140991 593.000671,391.377655 592.640991,374.604919 
	C592.445251,365.477631 593.388916,356.714569 597.961548,348.565704 
	C609.936768,327.224854 642.745300,327.631256 653.173279,348.045471 
M639.802002,349.727753 
	C634.252930,343.857574 627.347412,342.894958 620.117432,345.148895 
	C612.257202,347.599365 608.288696,353.830200 606.470520,361.559326 
	C605.880310,364.068390 606.481873,365.854675 609.543945,365.852356 
	C619.998718,365.844330 630.453430,365.855927 640.908203,365.859161 
	C644.027588,365.860138 644.995605,364.200226 644.425598,361.325958 
	C643.650146,357.416016 643.001465,353.461609 639.802002,349.727753 
z"/>
<path fill="#000000" opacity="1.000000" stroke="none" 
	d="
M265.288696,353.104706 
	C267.235504,370.976349 265.832794,388.470947 266.138519,405.938629 
	C266.176910,408.132935 265.049561,409.543701 262.773560,409.262512 
	C258.779816,408.769104 253.043640,411.963470 252.565460,403.881134 
	C244.096451,409.796906 235.414581,411.607941 225.985275,409.297455 
	C216.349030,406.936279 209.898727,399.256073 209.205994,389.345032 
	C208.521866,379.557465 213.624588,371.633911 222.820007,367.635559 
	C230.596649,364.254150 238.767166,364.423615 246.902344,364.723358 
	C251.789856,364.903442 253.330902,363.239502 252.929688,358.386383 
	C252.166870,349.159668 247.632690,344.707092 238.257874,344.206665 
	C230.227615,343.778076 222.870880,345.895508 215.929703,349.772156 
	C212.460037,340.133728 214.191254,336.547913 223.024094,334.147186 
	C229.867798,332.287109 236.864243,331.974915 243.832291,332.832855 
	C255.661072,334.289307 262.126495,340.458282 265.288696,353.104706 
M230.529541,376.774475 
	C225.608215,378.815491 222.640244,382.487640 222.693466,387.807434 
	C222.734894,391.951660 224.671295,395.456604 228.574524,397.548248 
	C233.711029,400.300781 243.293869,399.259674 247.890564,395.408905 
	C252.238510,391.766479 254.541702,383.212463 252.820740,377.546722 
	C252.358978,376.026550 251.474884,375.245209 250.007141,375.270935 
	C243.741364,375.380829 237.396271,374.329407 230.529541,376.774475 
z"/>
<path fill="#000000" opacity="1.000000" stroke="none" 
	d="
M347.164001,407.118073 
	C339.562531,402.179871 337.922546,394.790619 337.808105,386.905060 
	C337.631744,374.750519 337.565399,362.586975 337.855194,350.436859 
	C337.969116,345.660828 336.504120,343.566467 331.659851,344.259003 
	C327.012238,344.923431 325.469666,342.800446 325.705353,338.262909 
	C325.883698,334.829651 327.107330,333.641785 330.516235,333.620239 
	C337.717560,333.574738 337.717529,333.422577 337.747437,326.093475 
	C337.753571,324.594696 337.747223,323.095856 337.751190,321.597046 
	C337.768951,314.885101 337.849121,314.803253 344.345337,314.814819 
	C350.791565,314.826294 350.961426,315.052673 351.003326,322.172943 
	C351.081726,335.491058 349.389160,333.488159 362.261719,333.690948 
	C363.260681,333.706696 364.260162,333.687286 365.259338,333.694519 
	C370.944702,333.735748 372.729767,336.285004 371.227539,341.881897 
	C370.644714,344.053436 369.125732,344.217682 367.423676,344.235596 
	C363.427307,344.277618 359.426361,344.373566 355.434814,344.233582 
	C352.247345,344.121796 350.920471,345.407806 350.939606,348.619446 
	C351.018097,361.774719 350.793274,374.934235 351.048615,388.085052 
	C351.214386,396.623108 357.102295,400.444733 365.381439,398.015320 
	C367.265076,397.462585 368.910339,396.083893 371.011261,396.300964 
	C374.487885,404.397980 372.311737,408.760498 363.997955,410.012299 
	C358.253998,410.877136 352.734406,409.808533 347.164001,407.118073 
z"/>
<path fill="#000000" opacity="1.000000" stroke="none" 
	d="
M711.020264,335.250488 
	C711.249268,337.191498 711.278748,338.688751 711.385864,340.180420 
	C711.605103,343.232910 710.064697,344.339600 707.180725,344.273956 
	C703.521118,344.190704 699.848450,344.426849 696.198975,344.218292 
	C692.610291,344.013153 691.108459,345.237823 691.156189,349.022858 
	C691.319946,362.003143 691.127747,374.987854 691.278503,387.968475 
	C691.375793,396.345337 697.305786,400.447388 705.490051,398.194031 
	C707.522156,397.634521 709.286194,396.010193 711.602417,396.538025 
	C713.875000,406.619598 711.468384,409.892395 701.572388,410.252472 
	C687.717712,410.756592 679.888184,404.182709 678.546814,390.381653 
	C677.257019,377.109741 678.113892,363.773865 678.106873,350.470062 
	C678.104370,345.747986 676.765991,343.569672 671.892883,344.240051 
	C667.599182,344.830688 665.973816,342.946960 665.972717,338.603455 
	C665.971497,334.030823 668.412476,333.258179 672.030823,333.712067 
	C676.536133,334.277191 678.589966,332.579681 678.058716,327.887634 
	C677.816833,325.751465 678.007385,323.564758 678.024536,321.401154 
	C678.074097,315.161377 678.345703,314.889374 684.451904,314.850739 
	C691.044922,314.809021 691.188660,314.949432 691.228943,321.471924 
	C691.304382,333.680756 691.304810,333.634430 703.667114,333.735931 
	C706.076660,333.755707 708.689087,332.946960 711.020264,335.250488 
z"/>
<path fill="#000000" opacity="1.000000" stroke="none" 
	d="
M745.685303,408.758118 
	C736.377441,405.367676 732.949585,398.303406 732.763550,389.510376 
	C732.492310,376.688171 732.691711,363.856201 732.676758,351.028381 
	C732.669006,344.404999 732.647339,344.142822 726.245544,344.346008 
	C721.753174,344.488556 720.487122,342.758270 720.592834,338.487640 
	C720.685242,334.752228 722.039734,333.612061 725.643372,333.624573 
	C732.664246,333.648926 732.665771,333.477997 732.680298,326.440704 
	C732.684448,324.441559 732.867676,322.421417 732.644714,320.447510 
	C732.136353,315.946533 734.211731,314.655090 738.445801,314.765717 
	C745.137085,314.940521 745.291321,314.891296 745.320129,321.803314 
	C745.369629,333.685120 745.369629,333.685059 757.099609,333.691895 
	C758.265747,333.692596 759.443115,333.799744 760.596069,333.677307 
	C764.591125,333.253052 766.275330,334.759979 766.264771,338.997955 
	C766.254089,343.295532 764.423035,344.528168 760.488953,344.311920 
	C756.669495,344.102020 752.828247,344.309723 748.996826,344.289886 
	C746.516235,344.277039 745.342957,345.432922 745.347473,347.933899 
	C745.372192,361.594299 745.130432,375.260529 745.464478,388.912903 
	C745.640015,396.087067 751.642700,400.035919 758.855652,398.363373 
	C761.101746,397.842560 763.242737,396.868652 765.408264,396.110443 
	C769.323730,402.955872 767.175110,407.976013 759.867126,409.715240 
	C755.139465,410.840393 750.614746,409.965607 745.685303,408.758118 
z"/>
<path fill="#000000" opacity="1.000000" stroke="none" 
	d="
M872.195496,371.075989 
	C872.193909,382.214844 871.965332,392.872101 872.291504,403.512390 
	C872.450928,408.713043 870.085388,409.515350 865.672791,409.457672 
	C861.446472,409.402435 858.793701,409.012207 858.897644,403.652466 
	C859.313660,382.195221 859.492981,360.731232 859.487732,339.269806 
	C859.486633,334.842010 860.928284,333.374786 865.260620,333.615479 
	C869.093201,333.828461 872.965088,333.289429 872.211365,339.086456 
	C872.084961,340.058685 872.193481,341.061432 872.193481,343.744385 
	C876.615601,337.750732 881.231873,334.349945 887.341980,333.190247 
	C895.716431,331.600769 898.617615,334.739166 896.230774,343.045593 
	C895.772095,344.641876 894.839355,345.025513 893.370911,345.195984 
	C877.842041,346.999023 872.360718,353.207794 872.196106,369.089722 
	C872.190918,369.588898 872.196411,370.088196 872.195496,371.075989 
z"/>
<path fill="#000000" opacity="1.000000" stroke="none" 
	d="
M285.593628,358.999146 
	C285.608887,351.833282 285.847870,345.157776 285.564606,338.504517 
	C285.359650,333.690552 288.131134,333.513519 291.599823,333.686676 
	C294.803894,333.846558 298.762909,332.752899 298.262024,338.295776 
	C298.147064,339.567749 298.349548,340.868469 298.447052,343.094727 
	C302.668701,337.836853 307.157410,334.387817 313.102356,333.155029 
	C321.093445,331.497894 322.531372,332.604889 322.402557,340.732483 
	C322.381836,342.039734 322.229095,343.344910 322.127563,344.790710 
	C321.337006,344.986206 320.717163,345.278046 320.100494,345.271576 
	C306.492493,345.129303 298.585114,352.706177 298.340240,366.597137 
	C298.122894,378.925568 298.299957,391.260590 298.249969,403.592468 
	C298.226471,409.381653 298.065399,409.196899 290.694336,409.425598 
	C285.988403,409.571594 285.335358,407.618439 285.420288,403.444061 
	C285.718201,388.800598 285.571564,374.148071 285.593628,358.999146 
z"/>
<path fill="#000000" opacity="1.000000" stroke="none" 
	d="
M477.329468,387.000000 
	C477.328735,393.326111 477.150238,399.159271 477.379761,404.976318 
	C477.585083,410.180969 474.038361,409.299255 470.979126,409.335175 
	C467.840942,409.372040 464.596100,410.010071 464.633942,404.889343 
	C464.797577,382.751038 464.778595,360.610718 464.671570,338.471832 
	C464.653381,334.707001 466.134735,333.212524 469.701141,333.726288 
	C472.824188,334.176178 477.742096,331.681122 477.381134,338.213684 
	C477.319489,339.329559 477.167877,340.577972 478.762299,341.874786 
	C482.319336,337.134064 487.134338,334.188202 493.027802,333.066071 
	C500.872101,331.572510 503.915039,334.868103 501.944733,342.719299 
	C501.508362,344.458099 500.633942,345.093536 498.857483,345.252563 
	C484.006348,346.582184 477.469696,353.830017 477.344269,369.021576 
	C477.296173,374.847382 477.331818,380.673889 477.329468,387.000000 
z"/>
<path fill="#000000" opacity="1.000000" stroke="none" 
	d="
M521.305298,457.223206 
	C520.795898,458.950409 520.206665,460.215881 518.542114,460.041412 
	C517.140076,459.894409 516.854309,458.624023 516.539978,457.488098 
	C515.271057,452.902893 513.999695,448.318359 512.354248,442.380432 
	C510.644867,448.125305 509.371582,452.555328 507.989410,456.951141 
	C507.608429,458.162842 507.359985,459.758942 505.719269,459.914154 
	C503.665985,460.108429 503.381592,458.259247 503.011658,456.918762 
	C501.288391,450.674377 499.679047,444.398193 498.076843,438.121155 
	C497.795074,437.017090 497.547974,435.798187 499.755463,434.682037 
	C503.402771,439.494812 503.011108,445.927917 505.825531,451.930115 
	C507.287933,446.899323 508.505127,442.614288 509.789581,438.349487 
	C510.206848,436.964020 510.378876,435.124481 512.265015,435.028381 
	C514.560791,434.911438 514.623047,437.083374 515.063293,438.550354 
	C516.286194,442.625183 516.737000,446.936218 518.901855,451.402069 
	C522.171753,445.944427 521.370544,439.230347 526.124207,435.018433 
	C526.617615,442.813568 523.171387,449.640167 521.305298,457.223206 
z"/>
<path fill="#000000" opacity="1.000000" stroke="none" 
	d="
M226.691467,454.770508 
	C226.696533,449.138367 226.833618,443.975372 226.663376,438.822510 
	C226.553528,435.497772 228.056580,434.254883 231.132477,434.508972 
	C234.525162,434.789246 240.173172,434.146606 239.983826,437.888153 
	C239.678604,443.920197 243.342453,449.172455 242.109528,455.004059 
	C241.152969,459.528381 231.475998,462.732727 227.798904,459.881775 
	C226.219391,458.657196 226.899445,456.830353 226.691467,454.770508 
M235.310486,448.133148 
	C233.596893,448.004944 231.348557,446.856262 230.636688,449.316650 
	C230.013885,451.469269 229.578766,454.069061 231.081436,456.008331 
	C232.346893,457.641602 234.492355,457.136932 236.157593,456.403290 
	C239.278473,455.028320 239.163849,451.804504 235.310486,448.133148 
M235.561737,443.334595 
	C237.061996,441.728119 237.227341,440.064026 235.387711,438.698151 
	C234.299942,437.890594 232.867432,437.828278 231.610107,438.475433 
	C230.153366,439.225220 230.184570,440.687805 230.496262,441.954437 
	C231.110214,444.449493 233.074921,443.995178 235.561737,443.334595 
z"/>
<path fill="#000000" opacity="1.000000" stroke="none" 
	d="
M401.690002,451.893066 
	C401.690674,447.594086 401.665131,443.777222 401.698608,439.960876 
	C401.745605,434.598907 402.285614,434.186218 408.440521,434.616028 
	C413.781067,434.989014 416.615631,437.313934 415.652313,441.223663 
	C414.963287,444.020020 415.447693,445.967285 416.636566,448.533234 
	C418.170074,451.842957 418.093079,455.739716 414.961029,458.639648 
	C413.157227,460.309784 404.623291,461.263611 403.017578,459.880280 
	C400.625397,457.819458 402.092865,454.893860 401.690002,451.893066 
M405.379883,450.153870 
	C405.942261,452.552094 403.655426,456.200867 408.144012,456.872833 
	C410.464630,457.220245 412.434662,456.334534 413.289124,453.966370 
	C414.029755,451.913788 413.688782,449.880829 411.766022,448.710510 
	C409.645233,447.419708 407.249207,446.198334 405.379883,450.153870 
M408.854156,438.067291 
	C407.062042,437.733826 405.491852,437.808228 405.388519,440.186005 
	C405.324463,441.660767 405.192749,443.318390 407.101868,443.750580 
	C408.690460,444.110229 410.551910,444.375092 411.390747,442.496948 
	C412.237640,440.600739 411.720123,438.975159 408.854156,438.067291 
z"/>
<path fill="#000000" opacity="1.000000" stroke="none" 
	d="
M143.256592,441.618835 
	C142.162781,444.434357 143.239594,446.404846 144.247543,448.573334 
	C145.812485,451.940063 146.010849,455.571228 143.001846,458.256836 
	C139.548248,461.339294 135.215393,460.578918 131.109375,459.902069 
	C129.754807,459.678772 129.678177,458.187958 129.673843,457.026978 
	C129.650223,450.703949 129.690384,444.380676 129.671371,438.057617 
	C129.664642,435.820343 130.648453,434.614563 132.941299,434.657074 
	C136.699646,434.726746 140.837067,433.877991 142.976898,438.272827 
	C143.382874,439.106628 143.201096,440.226593 143.256592,441.618835 
M133.313492,450.129272 
	C133.790741,452.573914 131.596832,456.203827 136.103333,456.867401 
	C138.278564,457.187653 140.075699,456.277588 140.691742,453.978882 
	C141.230713,451.967804 141.245422,449.839447 139.278854,448.603455 
	C137.277435,447.345612 135.008926,446.318878 133.313492,450.129272 
M134.175873,443.386597 
	C136.605988,444.272797 138.948318,444.460754 139.480576,441.230438 
	C139.872116,438.854309 138.042938,438.066803 136.010895,438.176270 
	C132.669113,438.356262 133.153244,440.617401 134.175873,443.386597 
z"/>
<path fill="#000000" opacity="1.000000" stroke="none" 
	d="
M580.298096,451.909668 
	C579.955872,455.713440 581.800659,460.062012 575.755981,460.400085 
	C568.705688,460.794434 565.336792,459.102936 564.190430,453.876740 
	C563.088867,448.854950 565.742676,442.531311 570.057495,442.211517 
	C575.384766,441.816650 577.332947,439.710419 576.988953,434.680573 
	C576.932312,433.853149 577.754822,433.273315 579.734436,433.258331 
	C580.931274,439.166138 580.017395,445.347382 580.298096,451.909668 
M570.862610,445.540192 
	C567.784241,447.662964 567.542297,450.745209 568.377380,453.919891 
	C569.096436,456.653442 571.466675,457.067169 573.932617,456.914398 
	C576.407227,456.761139 576.583374,455.007294 576.714600,453.058014 
	C577.226807,445.450775 576.641602,444.517670 570.862610,445.540192 
z"/>
<path fill="#000000" opacity="1.000000" stroke="none" 
	d="
M348.392822,444.861786 
	C351.841003,452.197876 349.309845,459.222565 343.010681,460.333282 
	C338.793427,461.076874 334.985229,460.354218 332.901276,455.955383 
	C330.849457,451.624420 332.062775,445.771179 335.514221,443.219025 
	C339.149628,440.530792 344.186218,441.053406 348.392822,444.861786 
M336.063324,449.809540 
	C335.856445,452.963562 336.053131,455.996216 339.939972,456.738922 
	C342.492157,457.226624 344.561310,456.128448 345.560486,453.686676 
	C346.803253,450.649445 346.715454,447.503967 343.561310,445.854614 
	C340.254333,444.125336 337.431274,445.104218 336.063324,449.809540 
z"/>
<path fill="#000000" opacity="1.000000" stroke="none" 
	d="
M194.296555,456.931213 
	C196.449585,457.133942 198.349945,456.152893 199.953537,457.588165 
	C197.867859,461.805450 189.686737,461.820404 186.951447,457.348083 
	C184.642227,453.572418 184.934631,449.336487 186.966858,445.430603 
	C188.880829,441.751984 192.370285,441.421661 196.038345,441.691376 
	C199.181488,441.922455 200.778061,443.881042 201.571976,446.641174 
	C202.372452,449.424072 201.577606,451.255432 198.337448,451.303741 
	C197.005569,451.323578 195.662903,451.216980 194.343826,451.351379 
	C192.645660,451.524353 190.114334,450.628845 189.710693,453.061920 
	C189.250458,455.835938 191.640442,456.535370 194.296555,456.931213 
M191.363007,446.785034 
	C193.255432,448.802399 195.248215,448.660065 197.713089,447.181793 
	C195.724365,444.591370 193.748306,445.014801 191.363007,446.785034 
z"/>
<path fill="#000000" opacity="1.000000" stroke="none" 
	d="
M464.717468,456.729889 
	C467.264587,457.448517 469.759399,455.860596 471.747375,457.771088 
	C469.538666,460.975403 464.231750,461.613190 460.604828,459.183563 
	C456.882599,456.690033 455.895020,450.973602 458.344604,446.100555 
	C460.283813,442.242798 464.809692,440.423218 469.010925,442.012115 
	C471.936676,443.118530 473.635132,445.468414 473.477661,448.562866 
	C473.296143,452.130554 470.265808,451.103180 468.107056,451.309082 
	C467.282074,451.387787 466.434052,451.248016 465.613861,451.348724 
	C464.086243,451.536316 461.935730,450.709808 461.506836,453.052124 
	C461.146332,455.020996 462.687286,455.977753 464.717468,456.729889 
M466.021576,448.115723 
	C467.130432,447.982208 468.687561,448.983398 469.121796,446.711914 
	C466.926086,444.508453 465.003357,445.011963 462.183319,447.316498 
	C463.891602,447.717468 464.644989,447.894318 466.021576,448.115723 
z"/>
<path fill="#000000" opacity="1.000000" stroke="none" 
	d="
M243.662231,451.083557 
	C245.145096,443.362061 248.681473,440.531158 254.851273,441.739899 
	C258.326202,442.420746 260.024475,444.735992 260.015411,448.105103 
	C260.004883,452.032196 256.876465,451.128754 254.510513,451.285126 
	C254.178818,451.307068 253.829041,451.221527 253.513550,451.295837 
	C251.485580,451.773407 247.923904,450.053955 247.908035,453.492279 
	C247.892242,456.920715 251.309738,456.932129 254.055161,456.925598 
	C255.483261,456.922211 257.029846,456.385437 258.514313,457.921204 
	C256.678558,461.575714 253.336868,460.913177 250.510300,460.479980 
	C245.583115,459.724762 243.663879,456.244080 243.662231,451.083557 
M251.699753,448.100769 
	C253.018005,447.994202 254.660416,449.146240 255.658066,446.831055 
	C254.116180,444.810455 252.043274,444.770905 250.184860,446.052002 
	C248.400635,447.281891 249.822388,447.790558 251.699753,448.100769 
z"/>
<path fill="#000000" opacity="1.000000" stroke="none" 
	d="
M424.788940,460.298798 
	C419.134033,457.439178 417.441681,453.445068 419.174927,447.873108 
	C420.610626,443.257751 424.296783,440.988281 429.222626,441.656921 
	C431.743378,441.999146 433.570160,443.267426 434.533691,445.635040 
	C435.953796,449.124603 434.753815,451.024475 431.009827,451.250580 
	C428.687775,451.390839 426.361176,451.457214 424.039642,451.604645 
	C423.753632,451.622772 423.486389,451.936829 422.924622,452.297028 
	C423.322449,459.609650 430.322693,455.257599 433.605957,457.927643 
	C431.392395,461.588013 428.046783,460.202545 424.788940,460.298798 
M426.736115,448.013733 
	C428.082947,447.847015 429.599976,448.899048 431.054504,447.217529 
	C429.473572,444.937012 427.369995,444.600555 425.274261,445.994293 
	C423.512573,447.165863 424.835022,447.722504 426.736115,448.013733 
z"/>
<path fill="#000000" opacity="1.000000" stroke="none" 
	d="
M282.667358,455.927246 
	C280.730896,446.721313 284.727386,441.035553 292.223969,441.617706 
	C295.332123,441.859039 297.118256,443.570343 297.934113,446.320343 
	C298.780273,449.172607 298.190277,451.314331 294.557190,451.254425 
	C293.064484,451.229767 291.566101,451.201141 290.078674,451.300018 
	C288.489624,451.405670 286.404449,451.102051 286.459351,453.576630 
	C286.501831,455.492554 287.975769,456.318237 289.720306,456.807037 
	C292.010834,457.448853 294.647797,455.924713 296.849457,457.757568 
	C293.383728,462.203735 287.072418,461.453247 282.667358,455.927246 
M289.243927,447.929413 
	C290.895538,448.082123 292.728790,449.472321 294.080261,447.276062 
	C290.988983,444.359314 290.232330,444.430054 289.243927,447.929413 
z"/>
<path fill="#000000" opacity="1.000000" stroke="none" 
	d="
M153.802536,445.161804 
	C151.386169,444.753021 149.313904,446.740204 146.975159,444.875153 
	C149.351959,440.981354 153.090958,441.487030 156.519379,441.855103 
	C159.983429,442.226990 160.858658,445.031158 161.104401,448.039978 
	C161.185349,449.031158 161.156876,450.031372 161.175369,451.027496 
	C161.354614,460.682709 160.916092,461.127716 151.381378,460.654083 
	C148.844070,460.528076 146.796463,459.522125 146.249222,456.810974 
	C145.682709,454.004333 147.364273,452.441559 149.735672,451.548126 
	C150.960403,451.086731 152.289124,450.831879 153.593964,450.670288 
	C155.210159,450.470184 156.596405,450.047913 156.768326,448.177155 
	C156.933624,446.378662 155.971359,445.393036 153.802536,445.161804 
M153.210083,453.827271 
	C152.064987,454.264099 150.300171,454.240723 150.632675,456.064423 
	C150.930557,457.698151 152.468536,457.696289 153.779587,457.484985 
	C155.075012,457.276215 156.499115,456.858521 156.585938,455.285187 
	C156.693558,453.334930 155.248871,453.433380 153.210083,453.827271 
z"/>
<path fill="#000000" opacity="1.000000" stroke="none" 
	d="
M527.241821,447.774048 
	C530.245117,442.103149 534.759216,440.157074 539.734253,442.067169 
	C543.670654,443.578461 545.700745,449.126923 544.141357,454.111633 
	C542.724670,458.639862 538.447449,461.117310 533.506775,460.271362 
	C528.441956,459.404205 526.223755,455.211151 527.241821,447.774048 
M532.687622,455.967804 
	C535.601440,457.585022 538.324524,457.273346 539.951599,454.330200 
	C541.461182,451.599701 541.658997,448.486298 539.037537,446.140472 
	C537.249512,444.540344 534.919556,444.602478 533.052979,445.991699 
	C530.164673,448.141449 529.521301,451.045685 531.187805,454.326263 
	C531.407349,454.758484 531.793274,455.106140 532.687622,455.967804 
z"/>
<path fill="#000000" opacity="1.000000" stroke="none" 
	d="
M388.102814,445.566620 
	C388.186401,450.597290 388.935242,455.230438 387.627747,460.029053 
	C384.959534,459.815826 382.537415,460.067627 380.102875,460.409668 
	C376.975098,460.849091 374.314819,459.802826 373.864441,456.253448 
	C373.430878,452.837006 375.990540,451.711487 378.703796,450.945618 
	C379.180267,450.811127 379.687012,450.768127 380.183411,450.722351 
	C382.310516,450.526123 385.080841,450.804901 384.457886,447.466125 
	C383.908478,444.521515 381.270599,445.250427 379.146118,445.225098 
	C377.748230,445.208435 376.304077,446.559204 374.932587,445.150818 
	C377.416931,440.268799 384.222076,440.269958 388.102814,445.566620 
M384.183350,455.961548 
	C384.590790,454.971283 384.734924,453.737152 383.466431,453.637604 
	C381.275360,453.465637 378.961700,453.557404 377.578156,456.102692 
	C379.703552,458.287628 381.705841,457.862946 384.183350,455.961548 
z"/>
<path fill="#000000" opacity="1.000000" stroke="none" 
	d="
M324.651581,435.823730 
	C326.910553,432.206635 329.547607,431.952820 332.646210,433.729828 
	C332.602966,436.903900 328.948029,435.801636 328.297028,438.234314 
	C327.455017,441.381134 330.348602,441.513550 331.990753,443.271790 
	C323.900360,446.797272 330.926514,455.159851 325.263794,461.359985 
	C323.537109,452.177765 322.453857,444.314850 324.651581,435.823730 
z"/>
<path fill="#000000" opacity="1.000000" stroke="none" 
	d="
M454.272095,441.668762 
	C455.655334,442.318695 456.173920,443.067871 455.414398,444.158051 
	C450.781128,450.808197 450.867950,453.708435 456.037018,458.639771 
	C453.611023,461.422668 451.381409,460.503235 449.490997,458.188721 
	C446.961243,455.091400 447.447418,441.635773 450.065704,438.196838 
	C452.470917,438.006531 452.045624,441.130249 454.272095,441.668762 
z"/>
<path fill="#000000" opacity="1.000000" stroke="none" 
	d="
M278.063782,440.946198 
	C279.622345,441.980438 281.970154,442.261780 280.129059,444.629944 
	C275.821411,450.170563 275.987335,453.392700 280.914490,458.507385 
	C277.436859,461.233032 274.373352,460.186951 273.724731,455.897736 
	C273.091400,451.709778 274.265778,447.387115 272.103882,443.227844 
	C271.298004,441.677429 272.928711,439.227570 274.718628,438.320221 
	C276.669800,437.331116 276.972015,439.599274 278.063782,440.946198 
z"/>
<path fill="#000000" opacity="1.000000" stroke="none" 
	d="
M437.349854,446.039429 
	C434.813721,442.273376 437.724731,440.418823 439.238678,437.724579 
	C441.524841,439.480927 442.709991,441.872559 445.855530,443.019836 
	C442.036377,445.321960 440.851532,448.170837 441.336761,451.887909 
	C441.614960,454.019257 441.101471,456.290161 444.040985,456.957703 
	C444.913300,457.155823 445.385925,457.930023 445.218414,458.857849 
	C444.993042,460.106232 443.954742,460.278229 442.945862,460.279968 
	C439.666962,460.285645 438.142181,458.256256 437.834076,455.332245 
	C437.523224,452.381805 437.583832,449.392242 437.349854,446.039429 
z"/>
<path fill="#000000" opacity="1.000000" stroke="none" 
	d="
M262.728333,454.656555 
	C262.295441,450.827393 263.138000,447.415253 261.482727,444.006500 
	C260.410309,441.797974 263.043060,440.070496 263.868530,437.426392 
	C266.307495,439.596313 268.149475,441.235107 269.993805,442.876007 
	C264.867218,449.699097 264.876251,453.074615 269.967987,458.664490 
	C266.086365,461.315674 264.685883,460.623505 262.728333,454.656555 
z"/>
<path fill="#000000" opacity="1.000000" stroke="none" 
	d="
M202.999512,448.255859 
	C203.344604,441.057526 204.882019,440.318726 214.004547,442.525635 
	C214.385712,443.937897 213.749496,444.903900 212.419556,445.043060 
	C207.818542,445.524384 207.151993,448.467316 207.079788,452.394012 
	C207.033463,454.913696 208.663971,459.560852 205.336258,459.547943 
	C201.554337,459.533295 203.685638,454.787933 203.071136,452.161896 
	C202.814117,451.063538 203.002731,449.860870 202.999512,448.255859 
z"/>
<path fill="#000000" opacity="1.000000" stroke="none" 
	d="
M182.095856,445.239014 
	C178.983688,450.656158 179.701645,454.931976 183.891861,458.142059 
	C181.680237,460.708435 179.738052,460.752502 177.892929,458.278259 
	C176.075134,455.840637 175.793991,441.070435 177.550125,438.567749 
	C177.711288,438.338074 178.128098,438.287781 178.427872,438.157959 
	C183.723938,442.970825 183.723938,442.970825 182.095856,445.239014 
z"/>
<path fill="#000000" opacity="1.000000" stroke="none" 
	d="
M162.954529,449.167969 
	C162.960861,441.252136 165.929810,439.657166 173.729950,442.932220 
	C173.703140,443.243988 173.739304,443.816742 173.639587,443.841461 
	C166.992538,445.489410 166.535736,450.425629 166.968765,455.999817 
	C167.085556,457.503235 167.246933,459.824219 164.984451,459.866699 
	C162.642944,459.910645 163.040009,457.621796 162.960373,456.076569 
	C162.849976,453.934143 162.943451,451.781250 162.954529,449.167969 
z"/>
<path fill="#000000" opacity="1.000000" stroke="none" 
	d="
M556.482178,442.463623 
	C557.108582,443.941772 556.526611,444.851990 555.454102,444.945862 
	C550.087463,445.415771 550.014465,449.137817 550.000427,453.181519 
	C549.992432,455.491821 550.939880,458.172058 548.498596,460.014954 
	C545.474121,457.542786 544.866455,447.528564 547.482361,441.469635 
	C550.206787,443.997833 553.287415,441.132355 556.482178,442.463623 
z"/>
<path fill="#000000" opacity="1.000000" stroke="none" 
	d="
M476.122375,442.360443 
	C479.488007,443.149292 482.833038,440.758057 486.153503,442.843903 
	C484.449890,446.219177 478.758240,445.061249 478.900238,450.090363 
	C478.993317,453.386749 480.009216,457.035065 476.376556,461.402100 
	C474.187714,454.408508 474.308014,448.568817 476.122375,442.360443 
z"/>
<path fill="#000000" opacity="1.000000" stroke="none" 
	d="
M299.964813,444.563660 
	C303.107117,439.906311 307.120972,443.325623 311.623932,441.512421 
	C309.537201,446.240906 303.777893,445.025848 303.908569,449.982330 
	C303.995636,453.283356 305.028320,456.922821 302.076630,460.663544 
	C297.987091,455.538177 300.600616,449.991119 299.964813,444.563660 
z"/>
<path fill="#000000" opacity="1.000000" stroke="none" 
	d="
M562.224731,454.773468 
	C561.984009,456.924072 562.813049,459.031830 560.414612,459.873810 
	C557.694214,456.263123 557.749023,436.518982 561.043640,432.490601 
	C563.395935,440.039246 561.641113,447.268677 562.224731,454.773468 
z"/>
<path fill="#000000" opacity="1.000000" stroke="none" 
	d="
M351.666962,450.050812 
	C351.709930,447.134735 351.398987,444.652679 352.390503,441.912994 
	C355.752502,442.990356 359.112366,440.973450 362.249542,442.395264 
	C362.496002,443.695221 362.128967,444.654846 361.304932,444.749664 
	C355.021149,445.472626 355.069397,449.907562 355.206512,454.610687 
	C355.259277,456.419891 356.001465,458.652069 353.243622,460.119629 
	C350.490082,457.256500 352.193787,453.656494 351.666962,450.050812 
z"/>
</svg>